<svg width="102" height="100" viewBox="0 0 102 100" fill="none" xmlns="http://www.w3.org/2000/svg">
<path d="M0 20C0 8.9543 8.95431 0 20 0H82C93.0457 0 102 8.95431 102 20V80C102 91.0457 93.0457 100 82 100H20C8.9543 100 0 91.0457 0 80V20Z" fill="white"/>
<path d="M28.82 77.02C29.32 78.34 27.52 79.22 26.98 77.98C26.5 76.88 25.6 75.36 24.12 74.54C23.14 74 24.02 72.5 25.26 73.22C26.86 74.16 28.28 75.58 28.82 77.02ZM18.96 73.54L19.62 73.48C21.3 73.34 22.58 74.32 22.66 76.56C22.7 77.96 22.5 79.76 21.98 81.02C21.16 83 19.2 83.98 17.28 83.42C15.7 82.96 16.34 81.12 17.56 81.42C18.7 81.7 19.54 81.52 20.1 80.34C20.56 79.36 20.74 77.94 20.74 76.88C20.74 75.66 20.32 75.08 19.4 75.16C19.1 75.18 18.8 75.22 18.48 75.26C17.5 78.36 16.16 81.08 14.6 83.3C13.64 84.66 11.56 83.5 12.86 82.04C14.24 80.5 15.48 78.22 16.4 75.54L16.16 75.58C15.3 75.74 14.52 75.86 14 75.86C12.64 75.86 12.66 74.06 13.94 73.94C14.56 73.88 15.18 73.9 15.9 73.84L16.9 73.74C17.14 72.86 17.4 71.68 17.52 70.56C17.66 69.26 19.7 69.38 19.54 70.72C19.46 71.4 19.2 72.6 18.96 73.54ZM49.1 77.86C49.26 79.32 47.28 79.72 47 78.34C46.68 76.74 45.86 75.2 44.78 74.46C43.82 73.8 44.9 72.32 46.1 73.22C47.52 74.28 48.9 76.16 49.1 77.86ZM40.36 81.16C39.08 83.24 37.3 83.06 36.18 81.86C34.74 80.3 34.08 77.98 33.92 75.46C33.84 74.32 33.8 73.96 33.82 73.24C33.86 71.98 35.8 71.72 35.86 73.22C35.9 74 35.82 74.04 35.86 74.96C35.94 77.06 36.32 79.04 37.44 80.12C37.96 80.62 38.22 80.68 38.66 80.08C38.9 79.74 39.18 79.22 39.32 78.9C39.86 77.74 41.52 78.58 41.14 79.62C40.94 80.18 40.58 80.8 40.36 81.16ZM67.4792 75.92C66.3592 75.54 64.5392 75.32 63.4792 75.72C62.4392 76.1 61.8192 74.46 63.1392 74C64.1592 73.64 65.9792 73.4 67.9392 74.1C69.2792 74.58 68.7392 76.34 67.4792 75.92ZM67.4792 84.02C64.5792 84.6 62.0992 83.68 61.2192 82.7C60.3592 81.74 61.5992 80.16 62.6392 81.22C63.6592 82.26 64.8792 82.16 67.2192 81.96C68.6792 81.84 68.7992 83.76 67.4792 84.02ZM60.0192 73.54C58.7592 77.92 57.3392 81.38 56.3592 83.6C55.7592 84.94 53.6392 84.36 54.4792 82.66C55.3392 80.9 56.7592 77.86 57.9792 73.98C56.9192 74.1 55.8992 74.06 55.0592 73.7C54.0392 73.26 54.2392 71.44 55.7392 71.98C56.5792 72.28 57.5592 72.28 58.4992 72.1C58.6192 71.36 58.5392 70.82 58.4792 69.94C58.3992 68.8 60.2792 68.74 60.4792 69.84C60.5592 70.34 60.5592 70.88 60.4992 71.44C60.7792 71.3 61.0192 71.16 61.2592 71.02C62.2992 70.34 63.5392 72 62.0392 72.74C61.4792 73.02 60.7592 73.32 60.0192 73.54ZM83.3192 80.54C81.9992 81.22 80.2592 80.84 79.6192 79.04C78.9192 77.1 79.9992 75.66 81.2192 75.28C81.7992 75.1 82.3992 75.02 82.9392 75.1C82.9192 74.66 82.8992 74.06 82.8792 73.48C81.1992 73.64 79.5392 73.88 78.4992 74.04C77.0592 74.26 76.1192 74.52 75.5192 74.62C74.1792 74.86 73.7792 72.86 75.3592 72.6C76.1592 72.46 77.4592 72.32 78.2992 72.18C79.2992 72.02 81.0992 71.8 82.8592 71.64C82.8592 71.52 82.8592 71.38 82.8592 71.28C82.8792 70.04 82.7592 69.96 82.7592 69.32C82.7592 67.86 84.7792 68 84.8592 69.26C84.8792 69.72 84.8192 70.64 84.7792 71.18C84.7792 71.28 84.7592 71.38 84.7592 71.48C85.3392 71.44 85.8592 71.42 86.2992 71.42C87.2792 71.42 87.9792 71.4 89.3392 71.42C91.0192 71.46 90.9392 73.58 89.3392 73.46C87.9192 73.34 87.4392 73.34 86.1992 73.32C85.7392 73.32 85.2592 73.34 84.7392 73.36C84.7592 74 84.7792 74.62 84.7792 75.2C84.7792 75.48 84.8192 75.9 84.8392 76.34C86.6192 79.14 84.4992 83.38 82.3792 85.08C81.0392 86.14 79.2992 84.72 81.0392 83.48C81.9992 82.8 82.8392 81.68 83.3192 80.54ZM83.2992 77.28C83.1992 77.16 83.0992 77.04 82.9792 76.94C82.6992 76.7 82.1192 76.66 81.6992 76.86C81.2192 77.08 80.8992 77.7 81.1192 78.38C81.4792 79.46 83.2192 79.46 83.4192 78.04C83.4792 77.62 83.4192 77.44 83.2992 77.28Z" fill="#101010"/>
<path d="M29.9019 19C33.0973 19.0001 34.0103 21.7393 34.0103 21.7393L35.3794 25.8477H59.3472V28.0439C59.3474 28.596 59.7951 29.0439 60.3472 29.0439H63.9126V32.6084C63.9126 33.1607 64.3603 33.6084 64.9126 33.6084H68.3911C68.9432 33.6082 69.3911 33.1606 69.3911 32.6084V29.0439H72.9556C73.5077 29.0439 73.9553 28.596 73.9556 28.0439V25.8477H76.4663C77.2272 25.8477 78.475 26.5783 77.3794 29.5L74.1841 42.7393C74.0318 43.6523 73.0881 45.4785 70.5317 45.4785H40.4019C40.4019 46.696 40.95 49.1309 43.1411 49.1309H69.6187C72.358 49.1309 72.358 52.7822 69.6187 52.7822H43.1411C39.7174 52.7822 37.0229 51.4129 36.2925 47.7607C35.562 44.1084 32.3367 30.7177 30.8149 24.4785C30.7036 24.0221 30.3583 23.1087 29.9019 23.1084H23.0542C20.3151 23.1084 20.3151 19 23.0542 19H29.9019Z" fill="#FDA900"/>
<rect x="60.2605" y="24.4783" width="12.7826" height="3.65217" rx="1" fill="#FDA900"/>
<rect x="68.478" y="19.9131" width="12.7826" height="3.65217" rx="1" transform="rotate(90 68.478 19.9131)" fill="#FDA900"/>
<circle cx="64.8258" cy="57.3477" r="3.65217" fill="#FDA900"/>
<circle cx="43.8258" cy="57.3477" r="3.65217" fill="#FDA900"/>
</svg>
